<svg width="50" height="50" viewBox="0 0 50 50" fill="none" xmlns="http://www.w3.org/2000/svg">
<path d="M39.5837 8.33325H10.417C8.75939 8.33325 7.16968 8.99173 5.99758 10.1638C4.82547 11.3359 4.16699 12.9256 4.16699 14.5833V35.4166C4.16699 37.0742 4.82547 38.6639 5.99758 39.836C7.16968 41.0081 8.75939 41.6666 10.417 41.6666H39.5837C41.2413 41.6666 42.831 41.0081 44.0031 39.836C45.1752 38.6639 45.8337 37.0742 45.8337 35.4166V14.5833C45.8337 12.9256 45.1752 11.3359 44.0031 10.1638C42.831 8.99173 41.2413 8.33325 39.5837 8.33325ZM38.7295 12.4999L26.4795 24.7499C26.2858 24.9452 26.0554 25.1002 25.8015 25.2059C25.5477 25.3117 25.2754 25.3662 25.0003 25.3662C24.7253 25.3662 24.453 25.3117 24.1991 25.2059C23.9453 25.1002 23.7148 24.9452 23.5212 24.7499L11.2712 12.4999H38.7295ZM41.667 35.4166C41.667 35.9691 41.4475 36.499 41.0568 36.8897C40.6661 37.2804 40.1362 37.4999 39.5837 37.4999H10.417C9.86446 37.4999 9.33455 37.2804 8.94385 36.8897C8.55315 36.499 8.33366 35.9691 8.33366 35.4166V15.4374L20.5837 27.6874C21.7555 28.8578 23.3441 29.5153 25.0003 29.5153C26.6566 29.5153 28.2451 28.8578 29.417 27.6874L41.667 15.4374V35.4166Z" fill="white"/>
</svg>
